<?xml version="1.0" encoding="UTF-8" standalone="no"?>
<!DOCTYPE svg PUBLIC "-//W3C//DTD SVG 1.1//EN"
 "http://www.w3.org/Graphics/SVG/1.1/DTD/svg11.dtd">
<!-- Generated by graphviz version 2.40.1 (20161225.0304)
 -->
<!-- Title: dependencies Pages: 1 -->
<svg width="1134pt" height="284pt"
 viewBox="0.00 0.00 1134.00 284.00" xmlns="http://www.w3.org/2000/svg" xmlns:xlink="http://www.w3.org/1999/xlink">
<g id="graph0" class="graph" transform="scale(1 1) rotate(0) translate(4 280)">
<title>dependencies</title>
<polygon fill="#ffffff" stroke="transparent" points="-4,4 -4,-280 1130,-280 1130,4 -4,4"/>
<text text-anchor="start" x="542.0091" y="-42.4" font-family="sans-serif" font-weight="bold" font-size="14.00" fill="#000000">Legend</text>
<polygon fill="#ffffb3" stroke="transparent" points="329,-10 329,-30 349,-30 349,-10 329,-10"/>
<text text-anchor="start" x="352.629" y="-15.4" font-family="sans-serif" font-size="14.00" fill="#000000"> &#160;Declarations</text>
<polygon fill="#8dd3c7" stroke="transparent" points="442,-10 442,-30 462,-30 462,-10 442,-10"/>
<text text-anchor="start" x="465.7251" y="-15.4" font-family="sans-serif" font-size="14.00" fill="#000000"> &#160;Module</text>
<polygon fill="#80b1d3" stroke="transparent" points="528,-10 528,-30 548,-30 548,-10 528,-10"/>
<text text-anchor="start" x="551.7812" y="-15.4" font-family="sans-serif" font-size="14.00" fill="#000000"> &#160;Bootstrap</text>
<polygon fill="#fdb462" stroke="transparent" points="625,-10 625,-30 645,-30 645,-10 625,-10"/>
<text text-anchor="start" x="648.6732" y="-15.4" font-family="sans-serif" font-size="14.00" fill="#000000"> &#160;Providers</text>
<polygon fill="#fb8072" stroke="transparent" points="721,-10 721,-30 741,-30 741,-10 721,-10"/>
<text text-anchor="start" x="744.7258" y="-15.4" font-family="sans-serif" font-size="14.00" fill="#000000"> &#160;Exports</text>
<g id="clust1" class="cluster">
<title>cluster_AppModule</title>
<polygon fill="none" stroke="#000000" stroke-dasharray="1,5" points="8,-70 8,-268 396,-268 396,-70 8,-70"/>
</g>
<g id="clust2" class="cluster">
<title>cluster_AppModule_declarations</title>
<polygon fill="none" stroke="#000000" points="168,-78 168,-130 388,-130 388,-78 168,-78"/>
</g>
<g id="clust5" class="cluster">
<title>cluster_AppModule_imports</title>
<polygon fill="none" stroke="#000000" points="16,-78 16,-130 160,-130 160,-78 16,-78"/>
</g>
<g id="clust7" class="cluster">
<title>cluster_AppModule_bootstrap</title>
<polygon fill="none" stroke="#000000" points="167,-208 167,-260 291,-260 291,-208 167,-208"/>
</g>
<g id="clust15" class="cluster">
<title>cluster_ModalPageModule</title>
<polygon fill="none" stroke="#000000" stroke-dasharray="1,5" points="404,-143 404,-195 544,-195 544,-143 404,-143"/>
</g>
<g id="clust22" class="cluster">
<title>cluster_Tab1PageModule</title>
<polygon fill="none" stroke="#000000" stroke-dasharray="1,5" points="552,-70 552,-195 684,-195 684,-70 552,-70"/>
</g>
<g id="clust23" class="cluster">
<title>cluster_Tab1PageModule_declarations</title>
<polygon fill="none" stroke="#000000" points="574,-78 574,-130 662,-130 662,-78 574,-78"/>
</g>
<g id="clust29" class="cluster">
<title>cluster_Tab2PageModule</title>
<polygon fill="none" stroke="#000000" stroke-dasharray="1,5" points="692,-70 692,-195 824,-195 824,-70 692,-70"/>
</g>
<g id="clust30" class="cluster">
<title>cluster_Tab2PageModule_declarations</title>
<polygon fill="none" stroke="#000000" points="714,-78 714,-130 802,-130 802,-78 714,-78"/>
</g>
<g id="clust36" class="cluster">
<title>cluster_TabsPageModule</title>
<polygon fill="none" stroke="#000000" stroke-dasharray="1,5" points="832,-70 832,-195 1118,-195 1118,-70 832,-70"/>
</g>
<g id="clust37" class="cluster">
<title>cluster_TabsPageModule_declarations</title>
<polygon fill="none" stroke="#000000" points="1024,-78 1024,-130 1110,-130 1110,-78 1024,-78"/>
</g>
<g id="clust39" class="cluster">
<title>cluster_TabsPageModule_imports</title>
<polygon fill="none" stroke="#000000" points="840,-78 840,-130 1016,-130 1016,-78 840,-78"/>
</g>
<!-- AppComponent -->
<g id="node1" class="node">
<title>AppComponent</title>
<polygon fill="#ffffb3" stroke="#000000" points="281.9399,-122 176.0601,-122 176.0601,-86 281.9399,-86 281.9399,-122"/>
<text text-anchor="middle" x="229" y="-99.8" font-family="Times,serif" font-size="14.00" fill="#000000">AppComponent</text>
</g>
<!-- AppModule -->
<g id="node3" class="node">
<title>AppModule</title>
<polygon fill="#8dd3c7" stroke="#000000" points="270.6571,-187 267.6571,-191 246.6571,-191 243.6571,-187 187.3429,-187 187.3429,-151 270.6571,-151 270.6571,-187"/>
<text text-anchor="middle" x="229" y="-164.8" font-family="Times,serif" font-size="14.00" fill="#000000">AppModule</text>
</g>
<!-- AppComponent&#45;&gt;AppModule -->
<g id="edge1" class="edge">
<title>AppComponent&#45;&gt;AppModule</title>
<path fill="none" stroke="#000000" d="M229,-122.1061C229,-122.1061 229,-140.991 229,-140.991"/>
<polygon fill="#000000" stroke="#000000" points="225.5001,-140.9909 229,-150.991 232.5001,-140.991 225.5001,-140.9909"/>
</g>
<!-- ModalPage -->
<g id="node2" class="node">
<title>ModalPage</title>
<polygon fill="#ffffb3" stroke="#000000" points="379.762,-122 300.238,-122 300.238,-86 379.762,-86 379.762,-122"/>
<text text-anchor="middle" x="340" y="-99.8" font-family="Times,serif" font-size="14.00" fill="#000000">ModalPage</text>
</g>
<!-- ModalPage&#45;&gt;AppModule -->
<g id="edge2" class="edge">
<title>ModalPage&#45;&gt;AppModule</title>
<path fill="none" stroke="#000000" d="M326.7064,-122.2843C326.7064,-143.3211 326.7064,-175 326.7064,-175 326.7064,-175 280.7197,-175 280.7197,-175"/>
<polygon fill="#000000" stroke="#000000" points="280.7198,-171.5001 270.7197,-175 280.7197,-178.5001 280.7198,-171.5001"/>
</g>
<!-- ModalPageModule -->
<g id="node6" class="node">
<title>ModalPageModule</title>
<polygon fill="#8dd3c7" stroke="#000000" points="535.8118,-187 532.8118,-191 511.8118,-191 508.8118,-187 412.1882,-187 412.1882,-151 535.8118,-151 535.8118,-187"/>
<text text-anchor="middle" x="474" y="-164.8" font-family="Times,serif" font-size="14.00" fill="#000000">ModalPageModule</text>
</g>
<!-- ModalPage&#45;&gt;ModalPageModule -->
<g id="edge5" class="edge">
<title>ModalPage&#45;&gt;ModalPageModule</title>
<path fill="none" stroke="#000000" d="M353.2936,-122.0225C353.2936,-139.3734 353.2936,-163 353.2936,-163 353.2936,-163 402.2324,-163 402.2324,-163"/>
<polygon fill="#000000" stroke="#000000" points="402.2324,-166.5001 412.2324,-163 402.2324,-159.5001 402.2324,-166.5001"/>
</g>
<!-- AppComponent  -->
<g id="node5" class="node">
<title>AppComponent </title>
<polygon fill="#80b1d3" stroke="#000000" points="283.439,-252 174.561,-252 174.561,-216 283.439,-216 283.439,-252"/>
<text text-anchor="middle" x="229" y="-229.8" font-family="Times,serif" font-size="14.00" fill="#000000">AppComponent </text>
</g>
<!-- AppModule&#45;&gt;AppComponent  -->
<g id="edge4" class="edge">
<title>AppModule&#45;&gt;AppComponent </title>
<path fill="none" stroke="#000000" stroke-dasharray="1,5" d="M229,-187.1061C229,-187.1061 229,-205.991 229,-205.991"/>
<polygon fill="#000000" stroke="#000000" points="225.5001,-205.9909 229,-215.991 232.5001,-205.991 225.5001,-205.9909"/>
</g>
<!-- AppRoutingModule -->
<g id="node4" class="node">
<title>AppRoutingModule</title>
<polygon fill="#8dd3c7" stroke="#000000" points="152.2744,-122 149.2744,-126 128.2744,-126 125.2744,-122 23.7256,-122 23.7256,-86 152.2744,-86 152.2744,-122"/>
<text text-anchor="middle" x="88" y="-99.8" font-family="Times,serif" font-size="14.00" fill="#000000">AppRoutingModule</text>
</g>
<!-- AppRoutingModule&#45;&gt;AppModule -->
<g id="edge3" class="edge">
<title>AppRoutingModule&#45;&gt;AppModule</title>
<path fill="none" stroke="#000000" d="M88,-122.1061C88,-141.3391 88,-169 88,-169 88,-169 177.0771,-169 177.0771,-169"/>
<polygon fill="#000000" stroke="#000000" points="177.0771,-172.5001 187.0771,-169 177.0771,-165.5001 177.0771,-172.5001"/>
</g>
<!-- Tab1Page -->
<g id="node7" class="node">
<title>Tab1Page</title>
<polygon fill="#ffffb3" stroke="#000000" points="653.979,-122 582.021,-122 582.021,-86 653.979,-86 653.979,-122"/>
<text text-anchor="middle" x="618" y="-99.8" font-family="Times,serif" font-size="14.00" fill="#000000">Tab1Page</text>
</g>
<!-- Tab1PageModule -->
<g id="node8" class="node">
<title>Tab1PageModule</title>
<polygon fill="#8dd3c7" stroke="#000000" points="675.5298,-187 672.5298,-191 651.5298,-191 648.5298,-187 560.4702,-187 560.4702,-151 675.5298,-151 675.5298,-187"/>
<text text-anchor="middle" x="618" y="-164.8" font-family="Times,serif" font-size="14.00" fill="#000000">Tab1PageModule</text>
</g>
<!-- Tab1Page&#45;&gt;Tab1PageModule -->
<g id="edge6" class="edge">
<title>Tab1Page&#45;&gt;Tab1PageModule</title>
<path fill="none" stroke="#000000" d="M618,-122.1061C618,-122.1061 618,-140.991 618,-140.991"/>
<polygon fill="#000000" stroke="#000000" points="614.5001,-140.9909 618,-150.991 621.5001,-140.991 614.5001,-140.9909"/>
</g>
<!-- Tab2Page -->
<g id="node9" class="node">
<title>Tab2Page</title>
<polygon fill="#ffffb3" stroke="#000000" points="793.979,-122 722.021,-122 722.021,-86 793.979,-86 793.979,-122"/>
<text text-anchor="middle" x="758" y="-99.8" font-family="Times,serif" font-size="14.00" fill="#000000">Tab2Page</text>
</g>
<!-- Tab2PageModule -->
<g id="node10" class="node">
<title>Tab2PageModule</title>
<polygon fill="#8dd3c7" stroke="#000000" points="815.5298,-187 812.5298,-191 791.5298,-191 788.5298,-187 700.4702,-187 700.4702,-151 815.5298,-151 815.5298,-187"/>
<text text-anchor="middle" x="758" y="-164.8" font-family="Times,serif" font-size="14.00" fill="#000000">Tab2PageModule</text>
</g>
<!-- Tab2Page&#45;&gt;Tab2PageModule -->
<g id="edge7" class="edge">
<title>Tab2Page&#45;&gt;Tab2PageModule</title>
<path fill="none" stroke="#000000" d="M758,-122.1061C758,-122.1061 758,-140.991 758,-140.991"/>
<polygon fill="#000000" stroke="#000000" points="754.5001,-140.9909 758,-150.991 761.5001,-140.991 754.5001,-140.9909"/>
</g>
<!-- TabsPage -->
<g id="node11" class="node">
<title>TabsPage</title>
<polygon fill="#ffffb3" stroke="#000000" points="1102.4249,-122 1031.5751,-122 1031.5751,-86 1102.4249,-86 1102.4249,-122"/>
<text text-anchor="middle" x="1067" y="-99.8" font-family="Times,serif" font-size="14.00" fill="#000000">TabsPage</text>
</g>
<!-- TabsPageModule -->
<g id="node12" class="node">
<title>TabsPageModule</title>
<polygon fill="#8dd3c7" stroke="#000000" points="1046.9734,-187 1043.9734,-191 1022.9734,-191 1019.9734,-187 933.0266,-187 933.0266,-151 1046.9734,-151 1046.9734,-187"/>
<text text-anchor="middle" x="990" y="-164.8" font-family="Times,serif" font-size="14.00" fill="#000000">TabsPageModule</text>
</g>
<!-- TabsPage&#45;&gt;TabsPageModule -->
<g id="edge8" class="edge">
<title>TabsPage&#45;&gt;TabsPageModule</title>
<path fill="none" stroke="#000000" d="M1039.3875,-122.1061C1039.3875,-122.1061 1039.3875,-140.991 1039.3875,-140.991"/>
<polygon fill="#000000" stroke="#000000" points="1035.8875,-140.9909 1039.3875,-150.991 1042.8875,-140.991 1035.8875,-140.9909"/>
</g>
<!-- TabsPageRoutingModule -->
<g id="node13" class="node">
<title>TabsPageRoutingModule</title>
<polygon fill="#8dd3c7" stroke="#000000" points="1007.5912,-122 1004.5912,-126 983.5912,-126 980.5912,-122 848.4088,-122 848.4088,-86 1007.5912,-86 1007.5912,-122"/>
<text text-anchor="middle" x="928" y="-99.8" font-family="Times,serif" font-size="14.00" fill="#000000">TabsPageRoutingModule</text>
</g>
<!-- TabsPageRoutingModule&#45;&gt;TabsPageModule -->
<g id="edge9" class="edge">
<title>TabsPageRoutingModule&#45;&gt;TabsPageModule</title>
<path fill="none" stroke="#000000" d="M970.2795,-122.1061C970.2795,-122.1061 970.2795,-140.991 970.2795,-140.991"/>
<polygon fill="#000000" stroke="#000000" points="966.7795,-140.9909 970.2795,-150.991 973.7795,-140.991 966.7795,-140.9909"/>
</g>
</g>
</svg>
